<?xml version="1.0" ?><svg fill="none" height="40" viewBox="0 0 40 40" width="40" xmlns="http://www.w3.org/2000/svg"><path clip-rule="evenodd" d="M7 4H33V24.3252C33 27.2034 33 28.6425 32.4212 29.8629C32.2312 30.2635 31.9974 30.6418 31.7241 30.9908C30.8914 32.0543 29.6042 32.6979 27.0299 33.985L20 37.5L12.9701 33.985C10.3958 32.6979 9.10859 32.0543 8.27587 30.9908C8.00257 30.6418 7.76879 30.2635 7.57882 29.8629C7 28.6425 7 27.2034 7 24.3252V4ZM23 24.9996H22.5878C22.4628 24.6023 22.3202 24.2159 22.1757 23.8245C21.722 22.5956 21.2501 21.3174 21.2501 19.5C21.2501 17.4564 21.5058 15.6591 21.7186 14.1632C21.8702 13.0972 22.0001 12.1842 22.0001 11.4444C22.0001 9.66667 21.5001 8.5 20 7C18.5001 8.5 18.0001 9.66667 18.0001 11.4444C18.0001 12.1808 18.1288 13.0792 18.2795 14.1318C18.4928 15.6203 18.7501 17.4172 18.7501 19.5C18.7501 21.3532 18.2747 22.6329 17.8194 23.8583C17.6781 24.2388 17.5387 24.6141 17.416 24.9996H17C15.6193 24.9996 14.5 23.8803 14.5 22.4996C14.5 21.2917 15.3566 20.284 16.4954 20.0505C16.4058 15.6931 15.0077 11.2886 12 9.9996V27.9996H17.0165C17.1441 29.8777 17.9964 30.7814 18.9345 31.7761C19.289 32.1519 19.6557 32.5408 20.0001 33C20.3446 32.5407 20.7113 32.1519 21.0658 31.776C22.0038 30.7814 22.8561 29.8776 22.9837 27.9996H28V9.9996C24.9923 11.2886 23.5942 15.6931 23.5046 20.0505C24.6434 20.284 25.5 21.2917 25.5 22.4996C25.5 23.8803 24.3807 24.9996 23 24.9996Z" fill="black" fill-rule="evenodd"/></svg>