<?xml version="1.0" ?><svg fill="none" height="40" viewBox="0 0 40 40" width="40" xmlns="http://www.w3.org/2000/svg"><path clip-rule="evenodd" d="M26 7L18.8 8.8L18.1176 11.5294L8 9L3 10.25L3.95588 14.0735L1 19L2 23L6 24L10.3333 21.8333L15 23L16.25 28H14.5L13.75 31L14.75 32L17 31L19.8235 27.7059L25 29V30L23 30.5V31.5L25 32.5V34L27 34.5L28.5 33L32.5 32.5V31H29L27.8889 28.7778L35 27L35.8333 23.6667L38.5 23L40 17L30.1333 14.5333L29.5 12H27.25L26 7ZM18.2991 17.6751C17.3765 17.1668 16.5 16.6838 16.5 15.4996C16.5 12.9996 19 12.9995 20 14.5002C21 12.9998 23.5 12.9999 23.5 15.4996C23.5 16.6839 22.6235 17.1668 21.7008 17.6752C21.0653 18.0253 20.4079 18.3875 20 18.9993C19.5921 18.3875 18.9347 18.0253 18.2991 17.6751Z" fill="black" fill-rule="evenodd"/></svg>